<?xml version="1.0" encoding="UTF-8"?>
<svg id="Layer_1" data-name="Layer 1" xmlns="http://www.w3.org/2000/svg" xmlns:xlink="http://www.w3.org/1999/xlink" viewBox="0 0 1080 1080">
  <defs>
    <style>
      .cls-1, .cls-2, .cls-3, .cls-4, .cls-5, .cls-6 {
        stroke-width: 0px;
      }

      .cls-1, .cls-5 {
        fill: #000;
      }

      .cls-2 {
        fill: url(#Steel-2);
      }

      .cls-2, .cls-4, .cls-5, .cls-6 {
        fill-rule: evenodd;
      }

      .cls-7 {
        filter: url(#drop-shadow-1);
      }

      .cls-3 {
        fill: #595959;
      }

      .cls-4 {
        fill: url(#linear-gradient);
      }

      .cls-6 {
        fill: url(#Steel);
      }
    </style>
    <filter id="drop-shadow-1" filterUnits="userSpaceOnUse">
      <feOffset dx="7" dy="7"/>
      <feGaussianBlur result="blur" stdDeviation="5"/>
      <feFlood flood-color="#000" flood-opacity=".35"/>
      <feComposite in2="blur" operator="in"/>
      <feComposite in="SourceGraphic"/>
    </filter>
    <linearGradient id="linear-gradient" x1="401.38" y1="474.84" x2="502.49" y2="519.84" gradientUnits="userSpaceOnUse">
      <stop offset="0" stop-color="#edeae8"/>
      <stop offset="0" stop-color="#e6e3e0"/>
      <stop offset=".06" stop-color="#d7d5d2"/>
      <stop offset=".19" stop-color="#b0b0af"/>
      <stop offset=".36" stop-color="#717676"/>
      <stop offset=".45" stop-color="#4c5354"/>
      <stop offset=".46" stop-color="#4e5556"/>
      <stop offset=".5" stop-color="#909494"/>
      <stop offset=".53" stop-color="#c0c2c2"/>
      <stop offset=".56" stop-color="#dddede"/>
      <stop offset=".57" stop-color="#e9e9e9"/>
      <stop offset=".63" stop-color="#dfdfe0"/>
      <stop offset=".74" stop-color="#c5c6c9"/>
      <stop offset=".87" stop-color="#9a9ea3"/>
      <stop offset=".88" stop-color="#999da2"/>
      <stop offset="1" stop-color="#d9d9d9"/>
      <stop offset="1" stop-color="#b2b1b1"/>
    </linearGradient>
    <linearGradient id="Steel" x1="409" y1="443.4" x2="680.69" y2="443.4" gradientUnits="userSpaceOnUse">
      <stop offset="0" stop-color="#edeae8"/>
      <stop offset="0" stop-color="#e6e3e0"/>
      <stop offset=".04" stop-color="#d7d5d2"/>
      <stop offset=".11" stop-color="#b0b0af"/>
      <stop offset=".21" stop-color="#717676"/>
      <stop offset=".26" stop-color="#4c5354"/>
      <stop offset=".27" stop-color="#4e5556"/>
      <stop offset=".38" stop-color="#909494"/>
      <stop offset=".47" stop-color="#c0c2c2"/>
      <stop offset=".53" stop-color="#dddede"/>
      <stop offset=".57" stop-color="#e9e9e9"/>
      <stop offset=".63" stop-color="#dfdfe0"/>
      <stop offset=".74" stop-color="#c5c6c9"/>
      <stop offset=".87" stop-color="#9a9ea3"/>
      <stop offset=".88" stop-color="#999da2"/>
      <stop offset="1" stop-color="#d9d9d9"/>
      <stop offset="1" stop-color="#b2b1b1"/>
    </linearGradient>
    <linearGradient id="Steel-2" data-name="Steel" x1="519.02" y1="355.32" x2="585.65" y2="572.74" xlink:href="#Steel"/>
  </defs>
  <g class="cls-7">
    <path class="cls-4" d="M409,514c71.92,47.58,128.69,36.32,172.68,1.7-63.63,14.89-105.02-8.88-140.93-38.43,0,0-21.75,34.8-31.75,36.72h0Z"/>
    <path class="cls-5" d="M565.49,345.09h-51.03l102.57,224.01c.89,1.95,2.83,3.19,4.97,3.19h39c3.98,0,6.63-4.12,4.97-7.75l-100.48-219.46Z"/>
    <path class="cls-5" d="M514.46,345.09h51.03l-102.57,224.01c-.89,1.95-2.83,3.19-4.97,3.19h-39c-3.98,0-6.63-4.12-4.97-7.75l100.48-219.46Z"/>
    <path class="cls-6" d="M409,514c163.71,29.5,248.05-27.58,271.69-148.87-50.22,82.01-122.91,132.41-239.94,112.15-13.72,15.87-19.24,22.24-31.75,36.72h0Z"/>
    <path class="cls-2" d="M479.18,503.73c-3.36-.04-6.73-.13-10.18-.31-8.43-.36-17.13-1.08-26.05-2.11-5.16-.58-10.36-1.3-15.65-2.11-.58-.09-1.17-.18-1.75-.27-1.03-.13-2.06-.31-3.09-.49-3.99,4.62-8.07,9.33-13.45,15.56,9.01,1.61,17.76,2.96,26.28,4.08,8.07,1.03,15.92,1.84,23.54,2.42,8.88.67,17.49,1.08,25.83,1.12,14.8.13,28.74-.72,41.79-2.47,22.42-3.05,42.33-8.83,59.86-17.22,14.62-6.99,27.58-15.87,38.88-26.46,28.25-26.37,46.41-63.58,55.51-110.35-16.55,39.55-37.44,70.53-63.4,93.13-11.93,10.4-24.98,19.01-39.19,25.83-24.75,11.93-53,18.43-85.2,19.51-4.48.13-9.06.18-13.72.13h0Z"/>
  </g>
  <g>
    <g>
      <path class="cls-1" d="M352.44,668.89l-4.29-9.83c-.07-.22-.29-.36-.58-.36h-19.72c-.29,0-.51.15-.58.36l-4.08,9.83h-11.21l21.76-54.59h7.93l21.91,54.59h-11.14ZM337.73,632.86c-.07,0-.15.07-.15.15q-.07.07-.07.15l-6.11,15.36c-.07.07-.07.15-.07.29s.07.22.29.22h12.16c.22,0,.29-.07.29-.29,0-.07,0-.15-.07-.22l-6.04-15.36q-.07-.07-.07-.15l-.15-.15Z"/>
      <path class="cls-1" d="M378.2,633.23c1.97-.8,4-1.31,6.26-1.31,10.26,0,16.23,5.82,16.23,16.09v20.89h-9.9v-20.74c0-3.49-2.84-6.33-6.33-6.33s-6.33,2.84-6.33,6.33v20.74h-9.83v-51.02h9.9v15.36Z"/>
      <path class="cls-1" d="M407.52,632.5h9.1v1.31c1.67-1.09,3.93-1.89,7.13-1.89,4.73,0,8.44,1.31,11.28,3.64,2.84-2.4,6.62-3.64,11.28-3.64,10.26,0,16.23,5.82,16.23,16.09v20.89h-9.9v-20.74c0-3.49-2.84-6.33-6.33-6.33s-6.33,2.47-6.33,5.9v21.18h-9.9v-20.74c0-3.49-2.84-6.33-6.33-6.33s-6.11,2.47-6.33,5.9v21.18h-9.9v-36.39Z"/>
      <path class="cls-1" d="M497.41,657.54l4,7.06c-4.88,3.49-8.81,4.88-14.78,4.88-10.92,0-18.85-7.93-18.85-18.85,0-10.34,8.01-18.63,18.34-18.63,10.84,0,16.67,7.42,16.67,17.91,0,1.53-.07,2.69-.22,4.15h-23.8c-.15,0-.22.15-.22.36,1.09,3.57,4.59,6.04,9.03,6.04,3.64,0,6.48-1.16,9.83-2.91ZM480.52,642.91c-1.46,1.46-2.11,3.13-2.11,3.64,0,.15.07.22.29.22h13.76c.22,0,.29-.07.29-.15,0-1.02-.44-2.84-1.6-4s-2.69-1.96-5.39-1.96c-1.96,0-3.93.95-5.24,2.26Z"/>
      <path class="cls-1" d="M535.03,666.85c-2.62,1.46-5.75,2.62-9.53,2.62-10.26,0-18.78-8.52-18.78-18.78s8.52-18.78,18.78-18.78c3.42,0,6.4.87,9.03,2.33v-16.3h9.9v50.95h-9.39v-2.04ZM525.5,659.72c5.02,0,8.95-3.93,8.95-9.03s-3.93-9.02-8.95-9.02-8.95,3.93-8.95,9.02,3.93,9.03,8.95,9.03Z"/>
      <path class="cls-1" d="M583.21,658.04c0,.29.15.44.44.44h19.14v10.41h-29.99v-54.59h29.99v10.41h-19.14c-.29,0-.44.15-.44.44v10.7c0,.29.15.44.44.44h19.14v10.41h-19.14c-.29,0-.44.15-.44.44v10.92Z"/>
      <path class="cls-1" d="M615.96,657.46c.8,1.09,1.82,2.55,3.64,2.55.87,0,2.04-.95,2.04-2.11,0-2.11-2.48-3.2-3.93-3.93-2.62-1.31-8.15-3.86-8.15-11.06,0-6.7,4.15-10.99,10.85-10.99,5.09,0,8.3,3.86,9.97,8.08l-6.77,3.57c-.51-1.38-1.24-2.26-2.91-2.26-.87,0-1.97.8-1.97,1.97,0,2.4,3.35,3.35,6.48,5.39,2.84,1.89,5.53,4.66,5.53,10.04,0,6.04-4.73,10.77-10.48,10.77s-9.17-3.71-11.14-7.86l6.84-4.15Z"/>
      <path class="cls-1" d="M636.34,632.5h9.1v1.31c1.67-1.09,3.93-1.89,7.13-1.89,4.73,0,8.44,1.31,11.28,3.64,2.84-2.4,6.62-3.64,11.28-3.64,10.26,0,16.23,5.82,16.23,16.09v20.89h-9.9v-20.74c0-3.49-2.84-6.33-6.33-6.33s-6.33,2.47-6.33,5.9v21.18h-9.9v-20.74c0-3.49-2.84-6.33-6.33-6.33s-6.11,2.47-6.33,5.9v21.18h-9.9v-36.39Z"/>
      <path class="cls-1" d="M734.08,632.5v36.39h-9.03v-2.11c-2.91,1.82-6.26,2.69-9.83,2.69-10.26,0-18.78-8.52-18.78-18.78s8.52-18.78,18.78-18.78c3.57,0,6.99,1.02,9.83,2.77v-2.18h9.03ZM715.23,659.72c5.02,0,8.95-3.93,8.95-9.03s-3.93-9.02-8.95-9.02-8.95,3.93-8.95,9.02,3.93,9.03,8.95,9.03Z"/>
      <path class="cls-1" d="M745.94,619.54c2.62,0,4.95,2.33,4.95,4.95,0,2.84-2.33,5.02-4.95,5.02-2.84,0-5.02-2.18-5.02-5.02,0-2.62,2.18-4.95,5.02-4.95ZM740.92,632.42h9.9v36.46h-9.9v-36.46Z"/>
      <path class="cls-1" d="M758.09,617.94h9.9v50.95h-9.9v-50.95Z"/>
    </g>
    <g>
      <path class="cls-3" d="M361.83,717.61c.85,1.74,2.5,2.67,4.77,2.67,2.72,0,5.44-2.41,5.44-5.44,0-3.39-3.25-4.99-5.75-6.2-4.72-2.14-8.47-3.83-8.47-9.45,0-4.99,4.23-9.09,9.09-9.09,3.34,0,6.28,1.83,7.84,4.5l-3.57,1.83c-.76-1.43-2.5-2.36-4.23-2.36-2.67,0-5.13,2.36-5.13,4.9s.98,3.52,2.36,4.28c1.56.85,5.04,2.36,6.91,3.43,3.25,1.92,4.77,4.64,4.77,8.2,0,5.17-4.32,9.36-9.36,9.36-4.68,0-8.07-2.99-8.56-5.97l3.88-.67Z"/>
      <path class="cls-3" d="M390.36,701.26c6.33,0,11.45,5.13,11.45,11.45s-5.13,11.54-11.45,11.54-11.54-5.13-11.54-11.54,5.13-11.45,11.54-11.45ZM390.36,720.42c4.28,0,7.67-3.39,7.67-7.71s-3.39-7.67-7.67-7.67-7.71,3.39-7.71,7.67,3.39,7.71,7.71,7.71Z"/>
      <path class="cls-3" d="M405.78,698.14c0-3.34,2.23-5.44,5.26-5.44h3.92v3.43h-2.94c-1.38,0-2.45.67-2.45,2.5v3.34h6.42v3.43h-6.42v18.5h-3.79v-18.5h-3.43v-3.43h3.43v-3.83Z"/>
      <path class="cls-3" d="M420.14,695.11h3.79v6.86h6.42v3.43h-6.42v18.5h-3.79v-18.5h-6.46v-3.43h6.46v-6.86Z"/>
      <path class="cls-3" d="M432.08,701.61h4.06l5.04,15.96.09.31.09-.31,5.04-15.96h2.99l4.95,15.91.09.36.13-.4,4.95-15.87h4.06l-7.58,22.29h-3.25l-4.9-15.24-3.12,9.54-1.83,5.71h-3.21l-7.58-22.29Z"/>
      <path class="cls-3" d="M483.35,701.57h3.79v22.33h-3.79v-2.58c-2.09,1.83-4.68,2.94-7.67,2.94-6.42,0-11.54-5.13-11.54-11.54s5.13-11.45,11.54-11.45c2.99,0,5.57,1.11,7.67,2.94v-2.63ZM475.68,720.42c4.28,0,7.67-3.39,7.67-7.71s-3.39-7.67-7.67-7.67-7.71,3.39-7.71,7.67,3.39,7.71,7.71,7.71Z"/>
      <path class="cls-3" d="M490.3,701.61h3.79v1.56c1.43-1.07,2.58-1.78,6.64-1.92h1.34v3.83h-.94c-4.19.13-7.04,1.47-7.04,5.62v13.19h-3.79v-22.29Z"/>
      <path class="cls-3" d="M520.79,718.51l1.52,3.08c-2.45,1.78-5.66,2.67-8.33,2.67-6.42,0-11.54-5.13-11.54-11.54s4.64-11.45,11.05-11.45,10.21,4.99,10.21,10.83v2.18h-17.34c.71,3.7,3.74,6.15,7.62,6.15,2.14,0,4.72-.53,6.82-1.92ZM506.48,710.75c0,.09-.04.18-.04.27h13.28c0-2.76-2.67-5.97-6.37-5.97s-6.06,2.41-6.86,5.71Z"/>
      <path class="cls-3" d="M556.31,723.9h-16.4v-33.43h16.4v4.01h-12.12c-.18,0-.27.04-.27.18v10.25c0,.13.09.18.27.18h12.12v4.01h-12.12c-.18,0-.27.09-.27.22v10.3c0,.18.09.27.27.27h12.12v4.01Z"/>
      <path class="cls-3" d="M559.84,701.61h3.79v1.56c1.65-1.29,3.61-1.92,5.88-1.92,5.17,0,9.76,4.06,9.76,9.14v13.5h-3.79v-12.97c0-3.16-2.76-5.93-5.93-5.93s-5.93,1.25-5.93,5.71v13.19h-3.79v-22.29Z"/>
      <path class="cls-3" d="M587.87,728.53c1.43,1.74,3.43,2.54,5.88,2.54,4.37,0,7.89-3.52,7.89-7.89v-1.92c-2.01,1.83-4.68,2.94-7.67,2.94-6.42,0-11.54-5.13-11.54-11.45s5.13-11.54,11.54-11.54c2.99,0,5.66,1.11,7.67,2.94v-2.58h3.79v21.57c0,6.46-5.21,11.63-11.68,11.63-3.61,0-6.73-1.52-8.87-4.01l2.99-2.23ZM594.38,720.42c4.28,0,7.67-3.39,7.67-7.67s-3.39-7.71-7.67-7.71-7.71,3.39-7.71,7.71,3.39,7.67,7.71,7.67Z"/>
      <path class="cls-3" d="M607.98,696.71c0-1.02.89-1.83,1.92-1.83.94,0,1.87.89,1.87,1.83,0,1.03-.85,1.92-1.87,1.92s-1.92-.85-1.92-1.92ZM607.98,701.61h3.79v22.29h-3.79v-22.29Z"/>
      <path class="cls-3" d="M615.07,701.61h3.79v1.56c1.65-1.29,3.61-1.92,5.88-1.92,5.17,0,9.76,4.06,9.76,9.14v13.5h-3.79v-12.97c0-3.16-2.76-5.93-5.93-5.93s-5.93,1.25-5.93,5.71v13.19h-3.79v-22.29Z"/>
      <path class="cls-3" d="M655.58,718.51l1.52,3.08c-2.45,1.78-5.66,2.67-8.33,2.67-6.42,0-11.54-5.13-11.54-11.54s4.64-11.45,11.05-11.45,10.21,4.99,10.21,10.83v2.18h-17.34c.71,3.7,3.74,6.15,7.62,6.15,2.14,0,4.72-.53,6.82-1.92ZM641.28,710.75c0,.09-.04.18-.04.27h13.28c0-2.76-2.67-5.97-6.37-5.97s-6.06,2.41-6.86,5.71Z"/>
      <path class="cls-3" d="M679.74,718.51l1.52,3.08c-2.45,1.78-5.66,2.67-8.33,2.67-6.42,0-11.54-5.13-11.54-11.54s4.64-11.45,11.05-11.45,10.21,4.99,10.21,10.83v2.18h-17.34c.71,3.7,3.74,6.15,7.62,6.15,2.14,0,4.72-.53,6.82-1.92ZM665.44,710.75c0,.09-.04.18-.04.27h13.28c0-2.76-2.67-5.97-6.37-5.97s-6.06,2.41-6.86,5.71Z"/>
      <path class="cls-3" d="M685.81,701.61h3.79v1.56c1.43-1.07,2.58-1.78,6.64-1.92h1.34v3.83h-.94c-4.19.13-7.04,1.47-7.04,5.62v13.19h-3.79v-22.29Z"/>
    </g>
  </g>
</svg>